<?xml version="1.0" ?><svg viewBox="0 0 60 60" xmlns="http://www.w3.org/2000/svg"><defs><style>.a{fill:#6b70de;}.b{fill:#ffc82c;}.c{fill:#f2bb20;}.d{fill:#d38e1d;}.e{fill:#ffe62c;}.f,.g{fill:none;stroke-linecap:round;stroke-miterlimit:10;}.f{stroke:#d6a723;stroke-width:1.58578px;}.g{stroke:#f2572f;stroke-width:1.5px;}</style></defs><title/><path class="a" d="M60,30A29.98881,29.98881,0,0,1,8.92,51.33,29.96091,29.96091,0,0,1,8,9.62,28.62035,28.62035,0,0,1,12,6,30,30,0,0,1,48,6a28.62035,28.62035,0,0,1,4,3.62A29.8357,29.8357,0,0,1,60,30Z"/><path class="b" d="M57,21,51.08,51.33a29.9616,29.9616,0,0,1-42.16,0L3,21l5-4.44V6H52V16.56Z"/><rect class="c" height="15" width="44" x="8" y="6"/><polygon class="d" points="8 6 8 20 12 13 8 6"/><polygon class="d" points="52 6 52 20 48 13 52 6"/><polygon class="e" points="12 13 12 21 3 21 12 13"/><polygon class="e" points="48 13 48 21 57 21 48 13"/><circle cx="14" cy="29" r="2"/><circle cx="47" cy="29" r="2"/><path class="f" d="M47,31v1.1178C47,41.99387,39.83656,50,31,50H30c-8.83655,0-16-8.00613-16-17.8822V31"/><path class="g" d="M47,28.99987V30A16,16,0,0,1,31,46H30A16,16,0,0,1,14,30V28.99987"/></svg>